<?xml version="1.0" standalone="no"?>
<!DOCTYPE svg PUBLIC "-//W3C//DTD SVG 20010904//EN"
 "http://www.w3.org/TR/2001/REC-SVG-20010904/DTD/svg10.dtd">
<svg version="1.0" xmlns="http://www.w3.org/2000/svg"
 width="512.000000pt" height="512.000000pt" viewBox="0 0 512.000000 512.000000"
 preserveAspectRatio="xMidYMid meet">

<g transform="translate(0.000000,512.000000) scale(0.100000,-0.100000)"
fill="#000000" stroke="none">
<path d="M2371 5110 c-624 -52 -1179 -308 -1616 -745 -406 -406 -653 -909
-731 -1485 -23 -168 -23 -472 0 -640 99 -737 490 -1373 1100 -1792 462 -317
1047 -478 1592 -439 369 27 656 104 975 263 536 265 945 689 1202 1246 220
478 280 1068 161 1602 -194 870 -849 1590 -1700 1869 -304 100 -681 146 -983
121z m273 -944 c95 -29 172 -108 197 -201 6 -22 15 -50 20 -62 l8 -22 476 -3
477 -3 34 -37 c33 -37 34 -40 34 -123 l0 -85 -1330 0 -1330 0 0 85 c0 83 1 86
34 123 l34 37 477 5 c508 5 494 4 495 53 0 10 7 34 15 55 63 150 210 223 359
178z m1050 -772 c10 -10 16 -32 16 -62 -1 -26 -27 -542 -59 -1148 -64 -1234
-54 -1148 -140 -1209 l-43 -30 -908 0 -908 0 -43 30 c-86 61 -76 -25 -140
1209 -32 606 -58 1122 -59 1148 0 85 -108 78 1150 78 1004 0 1120 -2 1134 -16z"/>
<path d="M1898 3053 c-59 -38 -58 -2 -34 -888 15 -550 26 -817 34 -831 27 -51
113 -71 161 -38 51 36 51 17 27 884 -14 534 -26 812 -33 825 -32 58 -105 80
-155 48z"/>
<path d="M2484 3036 l-34 -34 0 -827 0 -827 34 -34 c48 -48 104 -48 152 0 l34
34 0 827 0 827 -34 34 c-28 28 -42 34 -76 34 -34 0 -48 -6 -76 -34z"/>
<path d="M3121 3057 c-13 -6 -33 -25 -45 -40 -20 -27 -21 -51 -43 -830 -15
-556 -19 -812 -12 -834 28 -87 158 -100 201 -19 8 14 19 281 34 831 24 889 25
852 -35 888 -34 20 -67 21 -100 4z"/>
</g>
</svg>
