<?xml version="1.0" standalone="no"?>
<!DOCTYPE svg PUBLIC "-//W3C//DTD SVG 20010904//EN"
 "http://www.w3.org/TR/2001/REC-SVG-20010904/DTD/svg10.dtd">
<svg version="1.0" xmlns="http://www.w3.org/2000/svg"
 width="512.000000pt" height="512.000000pt" viewBox="0 0 512.000000 512.000000"
 preserveAspectRatio="xMidYMid meet">

<g transform="translate(0.000000,512.000000) scale(0.100000,-0.100000)"
fill="#000000" stroke="none">
<path d="M985 4915 c-30 -11 -146 -121 -512 -487 -442 -442 -473 -476 -473
-508 0 -33 31 -66 477 -512 423 -421 483 -478 521 -488 81 -21 111 -4 259 143
108 108 133 140 143 175 20 78 3 112 -128 245 l-116 117 1450 0 c1595 0 1503
3 1625 -61 141 -75 249 -253 249 -407 0 -75 20 -123 75 -177 63 -64 100 -75
245 -75 145 0 182 11 245 75 74 74 88 142 65 310 -42 291 -188 550 -411 728
-91 73 -239 154 -351 192 -168 56 -147 55 -1732 55 l-1460 0 116 118 c131 132
148 166 127 245 -9 34 -35 66 -132 165 -67 68 -133 130 -147 137 -42 22 -92
26 -135 10z"/>
<path d="M160 2227 c-49 -16 -133 -102 -148 -153 -16 -54 -15 -128 3 -244 74
-488 463 -869 960 -940 44 -6 616 -10 1529 -10 l1460 0 -116 -118 c-131 -132
-148 -166 -128 -245 10 -34 35 -66 143 -174 148 -147 178 -164 260 -143 37 10
97 67 520 488 446 447 477 479 477 512 0 33 -31 65 -477 512 -423 421 -483
478 -520 488 -82 21 -112 4 -260 -143 -108 -108 -133 -140 -143 -174 -20 -79
-3 -113 128 -245 l116 -118 -1450 0 c-1579 0 -1500 -3 -1616 56 -145 73 -258
255 -258 412 0 25 -5 63 -12 86 -16 55 -99 138 -154 154 -51 15 -266 14 -314
-1z"/>
</g>
</svg>
